<?xml version="1.0" standalone="no"?>
<!DOCTYPE svg PUBLIC "-//W3C//DTD SVG 20010904//EN"
 "http://www.w3.org/TR/2001/REC-SVG-20010904/DTD/svg10.dtd">
<svg version="1.0" xmlns="http://www.w3.org/2000/svg"
 width="360.000000pt" height="360.000000pt" viewBox="0 0 360.000000 360.000000"
 preserveAspectRatio="xMidYMid meet">

<g transform="translate(0.000000,360.000000) scale(0.100000,-0.100000)"
fill="#000000" stroke="none">
<path d="M0 1800 l0 -1800 1800 0 1800 0 0 1800 0 1800 -1800 0 -1800 0 0
-1800z m1469 1070 c52 -6 155 -24 230 -41 142 -32 186 -32 243 -3 16 9 32 14
34 12 2 -2 -14 -28 -36 -57 -48 -64 -93 -155 -129 -265 l-28 -81 -18 55 c-43
132 -106 208 -213 258 -78 37 -211 39 -287 4 -102 -47 -155 -123 -155 -222 0
-76 23 -123 86 -178 57 -51 115 -73 319 -124 l160 -39 19 28 c10 15 54 62 96
104 185 183 403 216 713 108 122 -42 172 -46 230 -21 26 11 49 17 51 14 2 -4
-17 -35 -42 -68 -65 -84 -106 -164 -137 -269 -14 -49 -27 -91 -30 -93 -5 -6
-7 0 -30 89 -31 124 -114 232 -212 279 -65 31 -173 38 -241 16 -85 -29 -176
-123 -215 -224 l-17 -43 54 -50 c30 -27 66 -69 80 -93 54 -92 70 -220 41 -329
-23 -88 -52 -136 -126 -209 l-68 -67 19 -56 c50 -145 145 -260 257 -313 49
-23 71 -27 143 -27 74 0 92 4 140 28 130 67 211 191 239 366 11 69 24 91 52
91 27 0 39 -31 39 -102 0 -324 -295 -543 -640 -474 -171 34 -320 133 -413 274
-95 142 -137 305 -137 525 0 118 11 232 24 245 7 7 117 -46 153 -74 18 -13 45
-46 60 -72 24 -40 29 -61 33 -147 5 -93 6 -98 19 -75 23 40 20 156 -6 211 -25
55 -87 120 -140 148 -60 30 -187 69 -318 97 -321 67 -434 159 -465 373 -19
135 13 248 97 342 73 80 183 134 303 149 36 4 67 8 70 9 3 0 47 -4 99 -9z
m495 -227 c-46 -61 -47 -61 -38 -38 17 47 66 113 72 97 2 -6 -13 -32 -34 -59z
m-461 43 c48 -17 115 -64 128 -88 9 -16 2 -15 -43 9 -48 26 -62 28 -158 28
-92 0 -111 -3 -153 -24 -26 -14 -55 -33 -64 -43 -24 -26 -34 -22 -22 10 15 39
58 82 104 103 48 22 152 25 208 5z m798 -397 c41 -20 99 -67 99 -79 0 -4 -17
1 -37 11 -124 61 -276 36 -367 -60 -40 -42 -51 -39 -27 7 66 129 211 182 332
121z m509 -6 c0 -3 -17 -29 -38 -57 -22 -28 -46 -62 -55 -76 -10 -13 -17 -20
-17 -16 0 13 59 117 78 139 15 17 32 23 32 10z m-1772 -248 c53 -35 151 -69
267 -94 173 -38 177 -39 169 -64 -3 -12 -7 -23 -8 -24 -3 -4 -215 47 -254 61
-72 26 -157 75 -193 112 -39 40 -33 43 19 9z m-11 -325 c21 -84 61 -156 118
-209 83 -79 174 -115 316 -127 l79 -7 12 -39 c6 -21 8 -41 4 -45 -13 -14 -234
17 -376 52 -180 45 -273 50 -342 18 -59 -27 -62 -16 -14 59 45 72 118 219 146
296 13 34 27 61 33 59 5 -1 16 -28 24 -57z m999 -298 c-14 -27 -37 -64 -52
-81 -23 -28 -29 -30 -36 -17 -7 13 4 31 46 78 31 34 56 66 56 71 0 6 3 8 6 5
3 -3 -6 -28 -20 -56z m-907 -142 c165 -40 274 -59 361 -61 67 -2 72 -3 85 -30
8 -15 15 -30 15 -32 0 -6 -110 2 -190 14 -41 6 -131 25 -200 42 -152 38 -263
42 -328 13 -23 -11 -45 -16 -48 -13 -4 3 3 22 15 41 40 64 108 70 290 26z
m1575 -299 c-15 -28 -53 -75 -84 -105 -100 -95 -212 -137 -370 -138 -169 0
-325 59 -435 165 l-60 58 51 -36 c123 -85 262 -127 419 -127 182 0 315 52 430
168 38 38 72 69 73 68 2 -2 -8 -25 -24 -53z"/>
</g>
</svg>
